<svg width="63" height="63" viewBox="0 0 63 63" fill="none" xmlns="http://www.w3.org/2000/svg">
<path d="M62.5447 31.121C62.5447 37.6931 60.454 44.0965 56.5723 49.4135C52.6905 54.7304 47.2169 58.6879 40.9361 60.7188C34.6552 62.7497 27.8895 62.7497 21.6087 60.7188C15.3278 58.6879 9.85427 54.7304 5.97249 49.4135C2.09071 44.0965 -5.46636e-07 37.6931 0 31.121C5.46636e-07 24.5489 2.09071 18.1455 5.97249 12.8285C9.85427 7.51159 15.3278 3.55406 21.6087 1.52317C27.8895 -0.507723 34.6552 -0.507724 40.9361 1.52317L36.7945 14.208C33.2054 13.0474 29.3393 13.0474 25.7503 14.208C22.1612 15.3685 19.0335 17.6299 16.8153 20.6682C14.5971 23.7064 13.4024 27.3655 13.4024 31.121C13.4024 34.8765 14.5971 38.5356 16.8153 41.5738C19.0335 44.6121 22.1612 46.8735 25.7503 48.0341C29.3393 49.1946 33.2054 49.1946 36.7945 48.0341C40.3835 46.8735 43.5113 44.6121 45.7294 41.5738C47.9476 38.5356 49.1423 34.8765 49.1423 31.121H62.5447Z" fill="#C3C3C3"/>
<path d="M40.9345 1.52344C47.2154 3.55433 52.689 7.51186 56.5707 12.8288C60.4525 18.1458 62.5432 24.5492 62.5432 31.1213H49.1408C49.1408 27.3658 47.9461 23.7067 45.7279 20.6684C43.5098 17.6302 40.382 15.3687 36.793 14.2082L40.9345 1.52344Z" fill="#0199EE"/>
</svg>
