<svg width="16" height="16" viewBox="0 0 16 16" fill="none" xmlns="http://www.w3.org/2000/svg">
<path fill-rule="evenodd" clip-rule="evenodd" d="M5.27945 10.159C5.21079 10.0853 5.12799 10.0262 5.03599 9.98522C4.94399 9.94423 4.84468 9.92219 4.74398 9.92041C4.64327 9.91863 4.54324 9.93716 4.44986 9.97488C4.35647 10.0126 4.27163 10.0687 4.20042 10.14C4.1292 10.2112 4.07305 10.296 4.03533 10.3894C3.99761 10.4828 3.97908 10.5828 3.98086 10.6835C3.98264 10.7842 4.00468 10.8835 4.04567 10.9755C4.08666 11.0675 4.14577 11.1503 4.21945 11.219L7.46945 14.47L7.99945 15L8.52945 14.47L11.7795 11.22C11.9161 11.0786 11.9918 10.8892 11.9902 10.6925C11.9886 10.4959 11.9098 10.3078 11.7708 10.1686C11.6318 10.0295 11.4438 9.95054 11.2471 9.94874C11.0505 9.94694 10.861 10.0224 10.7195 10.159L8.74945 12.129L8.74945 1.75C8.74945 1.55109 8.67044 1.36032 8.52978 1.21967C8.38913 1.07902 8.19837 1 7.99945 1C7.80054 1 7.60978 1.07902 7.46912 1.21967C7.32847 1.36032 7.24945 1.55109 7.24945 1.75L7.24945 12.129L5.27945 10.159Z" fill="#0492F4"/>
</svg>
