<svg width="8" height="14" viewBox="0 0 8 14" fill="none" xmlns="http://www.w3.org/2000/svg">
<path fill-rule="evenodd" clip-rule="evenodd" d="M6.71078 4.841C6.77945 4.91469 6.86225 4.97379 6.95424 5.01478C7.04624 5.05577 7.14556 5.07781 7.24626 5.07959C7.34696 5.08137 7.44699 5.06284 7.54038 5.02512C7.63377 4.9874 7.7186 4.93126 7.78982 4.86004C7.86104 4.78882 7.91718 4.70399 7.95491 4.6106C7.99263 4.51721 8.01115 4.41718 8.00937 4.31648C8.0076 4.21577 7.98556 4.11646 7.94456 4.02446C7.90357 3.93246 7.84447 3.84966 7.77078 3.781L4.52078 0.53L3.99078 0L3.46078 0.53L0.210783 3.78C0.0740959 3.92139 -0.00159014 4.1108 2.53393e-05 4.30745C0.00164082 4.5041 0.0804289 4.69225 0.21942 4.83137C0.358411 4.97049 0.546484 5.04946 0.743132 5.05126C0.939779 5.05306 1.12927 4.97755 1.27078 4.841L3.24078 2.871V13.25C3.24078 13.4489 3.3198 13.6397 3.46045 13.7803C3.6011 13.921 3.79187 14 3.99078 14C4.1897 14 4.38046 13.921 4.52111 13.7803C4.66176 13.6397 4.74078 13.4489 4.74078 13.25V2.871L6.71078 4.841Z" fill="#14BA6D"/>
</svg>
