<svg width="387" height="94" viewBox="0 0 387 94" fill="none" xmlns="http://www.w3.org/2000/svg">
<path d="M3.82143 10.1328H23.1498C24.1633 10.1328 25.1353 10.2645 25.852 10.4989C26.5686 10.7334 26.9713 11.0513 26.9713 11.3828V91.8495C26.9713 92.181 26.5686 92.4989 25.852 92.7333C25.1353 92.9678 24.1633 93.0995 23.1498 93.0995H3.82143C2.80792 93.0995 1.83593 92.9678 1.11927 92.7333C0.402618 92.4989 0 92.181 0 91.8495V11.3828C0 11.0513 0.402618 10.7334 1.11927 10.4989C1.83593 10.2645 2.80792 10.1328 3.82143 10.1328Z" fill="#FF928A"/>
<path d="M93.7296 0H113.058C114.072 0 115.044 0.131695 115.76 0.366116C116.477 0.600536 116.879 0.918479 116.879 1.25V91.85C116.879 92.1815 116.477 92.4995 115.76 92.7339C115.044 92.9683 114.072 93.1 113.058 93.1H93.7296C92.7161 93.1 91.7441 92.9683 91.0275 92.7339C90.3108 92.4995 89.9082 92.1815 89.9082 91.85V1.25C89.9082 0.918479 90.3108 0.600536 91.0275 0.366116C91.7441 0.131695 92.7161 0 93.7296 0Z" fill="#FF928A"/>
<path d="M183.638 8.86719H202.966C203.98 8.86719 204.952 8.99888 205.668 9.2333C206.385 9.46772 206.788 9.78567 206.788 10.1172V91.8505C206.788 92.182 206.385 92.5 205.668 92.7344C204.952 92.9688 203.98 93.1005 202.966 93.1005H183.638C182.624 93.1005 181.652 92.9688 180.936 92.7344C180.219 92.5 179.816 92.182 179.816 91.8505V10.1172C179.816 9.78567 180.219 9.46772 180.936 9.2333C181.652 8.99888 182.624 8.86719 183.638 8.86719Z" fill="#FF928A"/>
<path d="M273.546 5.06641H292.874C293.888 5.06641 294.86 5.1981 295.577 5.43252C296.293 5.66694 296.696 5.98489 296.696 6.31641V91.8497C296.696 92.1813 296.293 92.4992 295.577 92.7336C294.86 92.968 293.888 93.0997 292.874 93.0997H273.546C272.533 93.0997 271.561 92.968 270.844 92.7336C270.127 92.4992 269.725 92.1813 269.725 91.8497V6.31641C269.725 5.98489 270.127 5.66694 270.844 5.43252C271.561 5.1981 272.533 5.06641 273.546 5.06641Z" fill="#FF928A"/>
<path d="M363.454 2.53516H382.783C383.796 2.53516 384.768 2.66685 385.485 2.90127C386.201 3.13569 386.604 3.45364 386.604 3.78516V91.8518C386.604 92.1833 386.201 92.5013 385.485 92.7357C384.768 92.9701 383.796 93.1018 382.783 93.1018H363.454C362.441 93.1018 361.469 92.9701 360.752 92.7357C360.035 92.5013 359.633 92.1833 359.633 91.8518V3.78516C359.633 3.45364 360.035 3.13569 360.752 2.90127C361.469 2.66685 362.441 2.53516 363.454 2.53516Z" fill="#FF928A"/>
</svg>
