<svg width="387" height="86" viewBox="0 0 387 86" fill="none" xmlns="http://www.w3.org/2000/svg">
<path d="M3.82143 20.8984H23.1498C24.1633 20.8984 25.1353 21.0301 25.852 21.2646C26.5686 21.499 26.9713 21.8169 26.9713 22.1484V84.2484C26.9713 84.58 26.5686 84.8979 25.852 85.1323C25.1353 85.3667 24.1633 85.4984 23.1498 85.4984H3.82143C2.80792 85.4984 1.83592 85.3667 1.11927 85.1323C0.402611 84.8979 0 84.58 0 84.2484V22.1484C0 21.8169 0.402611 21.499 1.11927 21.2646C1.83592 21.0301 2.80792 20.8984 3.82143 20.8984Z" fill="#8979FF"/>
<path d="M93.7296 10.7656H113.058C114.072 10.7656 115.044 10.8973 115.76 11.1317C116.477 11.3662 116.879 11.6841 116.879 12.0156V84.249C116.879 84.5805 116.477 84.8984 115.76 85.1328C115.044 85.3673 114.072 85.499 113.058 85.499H93.7296C92.7161 85.499 91.7441 85.3673 91.0275 85.1328C90.3108 84.8984 89.9082 84.5805 89.9082 84.249V12.0156C89.9082 11.6841 90.3108 11.3662 91.0275 11.1317C91.7441 10.8973 92.7161 10.7656 93.7296 10.7656Z" fill="#8979FF"/>
<path d="M183.638 0H202.966C203.98 0 204.952 0.131695 205.668 0.366116C206.385 0.600536 206.788 0.918479 206.788 1.25V84.25C206.788 84.5815 206.385 84.8995 205.668 85.1339C204.952 85.3683 203.98 85.5 202.966 85.5H183.638C182.624 85.5 181.652 85.3683 180.936 85.1339C180.219 84.8995 179.816 84.5815 179.816 84.25V1.25C179.816 0.918479 180.219 0.600536 180.936 0.366116C181.652 0.131695 182.624 0 183.638 0Z" fill="#8979FF"/>
<path d="M273.546 9.5H292.875C293.888 9.5 294.86 9.6317 295.577 9.86612C296.293 10.1005 296.696 10.4185 296.696 10.75V84.25C296.696 84.5815 296.293 84.8995 295.577 85.1339C294.86 85.3683 293.888 85.5 292.875 85.5H273.546C272.533 85.5 271.561 85.3683 270.844 85.1339C270.127 84.8995 269.725 84.5815 269.725 84.25V10.75C269.725 10.4185 270.127 10.1005 270.844 9.86612C271.561 9.6317 272.533 9.5 273.546 9.5Z" fill="#8979FF"/>
<path d="M363.454 12.668H382.783C383.796 12.668 384.768 12.7997 385.485 13.0341C386.202 13.2685 386.604 13.5864 386.604 13.918V84.2513C386.604 84.5828 386.202 84.9008 385.485 85.1352C384.768 85.3696 383.796 85.5013 382.783 85.5013H363.454C362.441 85.5013 361.469 85.3696 360.752 85.1352C360.035 84.9008 359.633 84.5828 359.633 84.2513V13.918C359.633 13.5864 360.035 13.2685 360.752 13.0341C361.469 12.7997 362.441 12.668 363.454 12.668Z" fill="#8979FF"/>
</svg>
